# xmcd CD database file
#
# Track frame offsets:
#	150
#	12999
#	34049
#	50225
#	74818
#	98778
#	121794
#	139011
#	160897
#	186665
#	204146
#	238262
#	262488
#
# Disc length: 3945 seconds
#
# Revision: 2
# Processed by: cddbd v1.5.2PL0 Copyright (c) Steve Scherf et al.
# Submitted via: CDex 1.51
#
DISCID=c80f670d
DTITLE=Various Artist - JAZZNOW2108 Disc1(Now Side)
DYEAR=1900
DGENRE=Jazz
TTITLE0=Carry On
TTITLE1=Night And Day
TTITLE2=Live Your Fantasy
TTITLE3=Day To Day
TTITLE4=Starting Five
TTITLE5=Heartbreak Hill
TTITLE6=Paris In The Rain
TTITLE7=He's Funny That Way
TTITLE8=Second Light
TTITLE9=Saisons contradictoires
TTITLE10=Adios Nonino
TTITLE11=Copacabana
TTITLE12=016)
EXTD=
EXTT0=
EXTT1=
EXTT2=
EXTT3=
EXTT4=
EXTT5=
EXTT6=
EXTT7=
EXTT8=
EXTT9=
EXTT10=
EXTT11=
EXTT12=
PLAYORDER=
